<?xml version="1.0" standalone="no"?>
<!DOCTYPE svg PUBLIC "-//W3C//DTD SVG 20010904//EN"
 "http://www.w3.org/TR/2001/REC-SVG-20010904/DTD/svg10.dtd">
<svg version="1.0" xmlns="http://www.w3.org/2000/svg"
 width="696.000000pt" height="516.000000pt" viewBox="0 0 696.000000 516.000000"
 preserveAspectRatio="xMidYMid meet">

<g transform="translate(0.000000,516.000000) scale(0.100000,-0.100000)"
fill="#000000" stroke="none">
<path d="M3096 3178 c-3 -7 -21 -170 -41 -363 -21 -192 -41 -354 -45 -359 -5
-5 -12 9 -16 30 -4 22 -34 185 -68 364 l-61 325 -59 3 c-32 2 -63 -1 -67 -5
-8 -8 39 -264 139 -763 l27 -135 98 -3 c93 -3 97 -2 106 20 6 13 26 167 45
343 20 176 42 373 49 438 l13 117 -58 0 c-38 0 -60 -4 -62 -12z"/>
<path d="M3458 2810 c-1 -209 -3 -413 -3 -452 l0 -73 68 -3 67 -3 0 191 0 190
95 0 95 0 0 60 0 59 -92 3 -93 3 -3 60 c-2 33 -1 97 3 143 l7 82 114 0 114 0
0 60 0 60 -185 0 -185 0 -2 -380z"/>
<path d="M4080 3173 c0 -4 -12 -207 -26 -451 -15 -243 -25 -444 -23 -446 5 -5
360 -29 364 -24 1 2 5 28 8 59 l5 57 -116 8 -117 9 0 50 c0 28 7 167 15 310 8
143 15 298 15 345 l0 85 -62 3 c-35 2 -63 -1 -63 -5z"/>
<path d="M2290 3141 l-165 -16 -3 -26 c-2 -14 11 -169 27 -345 17 -175 33
-363 37 -416 4 -53 10 -102 15 -109 6 -11 35 -11 151 0 79 7 163 15 187 18
l43 6 -5 55 c-3 30 -7 56 -10 58 -2 2 -56 -1 -120 -8 -65 -6 -120 -9 -122 -7
-6 7 -29 268 -24 273 3 3 45 9 94 13 90 8 90 8 93 37 2 16 1 43 -2 61 l-6 31
-91 -9 c-51 -4 -95 -5 -99 0 -11 11 -31 246 -22 254 4 3 58 11 120 17 63 5
116 13 119 16 3 3 2 29 -3 58 -7 43 -13 53 -29 54 -11 1 -94 -6 -185 -15z"/>
<path d="M4686 3097 c-3 -23 -17 -161 -31 -307 -14 -146 -32 -330 -40 -409 -9
-79 -14 -145 -12 -147 2 -2 31 -7 65 -10 58 -6 61 -6 66 17 9 41 90 879 85
883 -2 2 -32 6 -65 9 l-62 6 -6 -42z"/>
<path d="M5086 3091 c-2 -3 15 -106 37 -229 l41 -222 -109 -220 c-60 -120
-107 -221 -105 -224 3 -2 30 -7 60 -11 l55 -6 83 167 c46 92 87 163 92 158 4
-5 20 -84 35 -176 15 -91 31 -171 34 -176 6 -9 127 -32 134 -25 2 1 -17 112
-42 245 l-45 241 103 204 c57 112 102 206 99 209 -3 3 -30 8 -60 11 l-54 5
-78 -158 c-55 -113 -80 -155 -86 -144 -4 8 -20 87 -34 175 -15 87 -28 160 -29
161 -6 6 -128 20 -131 15z"/>
<path d="M1541 3050 c-62 -10 -115 -21 -118 -24 -7 -7 118 -878 127 -889 12
-13 266 29 308 51 47 24 79 71 88 128 10 66 -69 592 -97 651 -45 93 -123 114
-308 83z m177 -128 c21 -21 19 -14 62 -307 38 -255 38 -299 6 -320 -24 -16
-126 -33 -126 -22 0 4 -20 145 -45 314 -25 170 -45 316 -45 325 0 32 118 40
148 10z"/>
</g>
</svg>
